<?xml version="1.0" encoding="UTF-8"?>
<!-- Created with Inkscape (http://www.inkscape.org/) -->
<svg width="512" height="512" version="1.2" baseProfile="tiny-ps" viewBox="0 0 512 512" xmlns="http://www.w3.org/2000/svg">
<title>Square_Logo_EMAIL</title>
 <path d="m0 487.5v-487.5h975v975h-975z" fill="#fefefe"/>
 <path d="m683.5 729.41c-1.65-0.22401-7.275-0.8858-12.5-1.4706-22.736-2.5448-51.178-9.6425-72.202-18.018-21.584-8.5982-48.01-23.777-65.048-37.364l-5.75-4.5851v-31.985c0-22.917 0.31714-31.985 1.1185-31.985 0.61519 0 5.0027 3.5164 9.75 7.8142 19.074 17.268 36.613 29.346 57.631 39.689 26.597 13.088 55.392 20.767 86.5 23.067 8.5068 0.6291 9.8434 1.0019 12.785 3.5658l3.2848 2.8633h30.465c29.132 0 30.553-0.0875 32.465-2 1.1-1.1 2-3.3234 2-4.941 0-3.6946 1.2602-4.534 3.3463-2.2288 4.5142 4.9882 22.679 47.545 21.007 49.216-1.1917 1.1917-16.985 4.4126-31.931 6.5122-11.283 1.5849-64.862 2.9439-72.922 1.8496zm-477.5-4.425c-17.736-1.3553-20-1.8647-20-4.5012 0-3.1436 5.605-19.416 11.533-33.482 18.913-44.877 48.77-87.706 81.387-116.75 12.213-10.873 30.038-24.254 32.311-24.254 1.6567 0 1.7692 2.1079 1.7692 33.144v33.144l-7.8219 8.1475c-9.3942 9.7852-18.388 20.975-26.146 32.53-6.144 9.1515-14.032 22.675-14.032 24.057 0 0.4637 0.88822 1.125 1.9738 1.4696 2.5226 0.80066 26.075-1.0712 36.526-2.9029l8-1.4022 6.2697 6.8134h24.504c31.224 0 29.035 1.2604 29.726-17.121l0.5-13.305 14-9.374c21.817-14.608 44.366-33.88 62.588-53.491l8.1682-8.7908-5.8181-12.709c-3.2-6.9901-6.3232-13.284-6.9405-13.986-2.3511-2.6737-36.248 5.6969-58.16 14.362-6.1392 2.4278-11.877 4.4141-12.75 4.4141-1.4113 0-1.5879-3.0005-1.5879-26.977 0-26.882 8e-3 -26.982 2.25-28.418 2.5436-1.629 27.502-8.02 35.499-9.0901 2.8869-0.38632 5.443-1.0165 5.6803-1.4005s-0.925-4.5043-2.5829-9.1563c-7.8031-21.896-13.254-51.026-14.401-76.958-0.69823-15.79 0.91729-42.527 2.6994-44.675 0.85684-1.0324 6.3533-1.3253 24.87-1.3253 20.806 0 23.847 0.1983 24.381 1.5902 0.33562 0.87464 0.41944 1.8989 0.18626 2.2762s-0.96053 7.9201-1.6163 16.762c-2.2404 30.206 2.0893 64.976 12.219 98.122 2.9406 9.6223 3.2941 10.25 5.7737 10.25 1.4527 0 3.1813 0.54 3.8413 1.2 0.90825 0.90825 1.2 16.71 1.2 64.997v63.797l-3.603 3.988c-4.6604 5.1586-20.641 18.98-31.1 26.898-26.184 19.823-62.897 37.878-97.739 48.067-41.328 12.085-90.906 17.295-133.56 14.036zm113.2-50.183c-0.92286-0.92286-1.2-36.489-1.2-154v-152.8h-54.066c-35.357 0-54.735-0.35822-56-1.0352-1.8068-0.967-1.9343-2.2712-1.9343-19.8 0-13.262 0.35193-19.117 1.2-19.965 1.789-1.789 329.73-1.7396 332.02 0.05 3.1252 2.4399 143.42 230.49 169.2 275.04 3.7536 6.4858 6.9974 11.62 7.2084 11.409 0.21102-0.21102-0.0907-11.593-0.67053-25.292-0.63976-15.117-0.93773-71.494-0.75795-143.41l0.29625-118.5 20.873-0.27066c14.552-0.18871 21.29 0.0755 22.25 0.87244 1.1601 0.96281 1.3774 28.472 1.3774 174.41 0 157.08-0.14783 173.33-1.5818 173.88-0.86998 0.33385-13.897 0.60699-28.949 0.60699h-27.367l-2.4422-3.25c-4.4111-5.8701-147.57-242.67-170.49-282-6.0908-10.454-9.1095-13.619-7.7238-8.0977 2.0419 8.1356 3.4963 287.71 1.516 291.41-0.97148 1.8152-2.2896 1.9343-21.418 1.9343-11.211 0-21.095-0.27314-21.965-0.60699-1.4329-0.54984-1.5818-15.048-1.5818-154v-153.39h-110v152.8c0 117.51-0.27714 153.08-1.2 154-0.86094 0.86094-7.4444 1.2-23.3 1.2s-22.439-0.33906-23.3-1.2zm321.3-78.415c-5.4948-4.2613-27.533-16.527-39.5-21.985-25.188-11.487-66.107-24.064-70.126-21.554-1.5111 0.94369-2.004 0.92794-2.3177-0.074-0.21914-0.69996-0.68969-34.733-1.0457-75.629-0.53368-61.31-0.41593-74.282 0.67112-73.936 2.29 0.73015 37.798 60.97 37.809 64.143 0.0112 3.359-4.8282 20.361-9.0712 31.868-1.6447 4.4606-2.6368 8.4167-2.2048 8.7914 0.43203 0.37466 4.8355 1.4936 9.7855 2.4866 11.37 2.2808 31.09 8.0043 33.879 9.8328 1.8054 1.1837 47.621 75.322 47.621 77.06 0 1.1752-3.5181 0.53296-5.5-1.004zm-78.816-244.14c-2.3669-3.7125-7.4154-11.803-11.219-17.98-3.8036-6.1762-7.6016-11.573-8.4401-11.994s-10.497-0.99194-21.464-1.2705l-19.94-0.50638-6.1941-11.086c-10.341-18.508-11.356-19.913-13.117-18.152-0.83021 0.83022-4.7269 7.7484-8.6594 15.374l-7.1499 13.864h-25.5c-25.378 0-25.501-0.0104-25.808-2.1627-0.71438-5.0144 16.747-44.253 28.91-64.965 12.99-22.12 36.341-53.372 39.879-53.372 1.1184 0 5.3915 4.0906 10.707 10.25 34.589 40.077 59.133 85.903 71.271 133.07 4.641 18.034 3.8693 20.139-3.2753 8.9324z" fill="#b499c8"/>
 <path d="m681.5 727.96c-43.496-4.355-82.36-16.161-115.18-34.99-12.384-7.1049-24.461-15.274-32.073-21.696l-5.25-4.4285v-30.423c0-19.814 0.35217-30.423 1.0099-30.423 0.55543 0 4.4239 3.1655 8.5965 7.0344 26.03 24.136 54.842 41.174 87.705 51.865 18.567 6.0406 46.373 11.1 61.001 11.1 3.5147 0 5.0176 0.59874 7.5303 3l3.1392 3h30.874c29.72 0 30.973-0.0774 33.509-2.0726 1.4492-1.1399 2.6349-2.9134 2.6349-3.941 0-5.125 2.567-2.0373 8.4734 10.192 9.5112 19.694 15.271 34.8 13.277 34.824-0.1375 2e-3 -4.8239 0.89108-10.414 1.9765-19.851 3.8543-34.412 5.191-60.336 5.5388-14.025 0.18817-29.55-0.0634-34.5-0.55899zm-470.5-3.9133c-15.444-0.95673-22.822-1.9485-23.576-3.1691-1.501-2.4286 11.162-34.972 21.547-55.377 18.084-35.531 38.64-63.573 65.432-89.265 12.246-11.743 35.145-29.633 36.699-28.672 0.49971 0.30884 0.89783 14.53 0.89783 32.072v31.517l-8.4553 9.174c-15.223 16.517-27.24 32.963-36.551 50.025-3.4981 6.4095-4.0285 8.0282-2.889 8.8168 1.9025 1.3165 23.12 0.28443 36.276-1.7646l10.588-1.649 5.8346 6.2459h51.288l2.4545-2.4546c2.3532-2.3532 2.4546-2.989 2.4546-15.396v-12.942l7.75-4.8084c19.973-12.392 36.579-25.803 58.308-47.091 9.107-8.9221 17.163-17.352 17.902-18.734 1.24-2.3169 0.8477-3.5703-5.0582-16.162-3.5214-7.5077-6.9906-13.88-7.7095-14.16-3.9106-1.524-39.239 7.702-58.193 15.197-6.325 2.5011-11.838 4.5484-12.25 4.5494-0.4125 1e-3 -0.75-11.868-0.75-26.377v-26.379l2.75-1.1074c4.1577-1.6743 20.619-5.8054 30.75-7.7168 4.95-0.93392 9.3726-2.0302 9.8281-2.4363 0.45543-0.40603-1.2553-7.2056-3.8017-15.11-5.0496-15.675-9.7503-37.468-11.592-53.742-1.6045-14.178-0.88959-59.275 0.97526-61.522 1.1561-1.393 4.4213-1.6087 24.352-1.6087h23.016l-0.62801 6.25c-3.3617 33.456-0.83806 65.474 7.8148 99.148 5.0459 19.637 6.4733 22.985 10.065 23.607l2.9704 0.51444 0.25724 64.595 0.25725 64.595-8.3228 7.9902c-41.145 39.5-98.872 67.384-161.98 78.24-26.308 4.5256-63.508 6.6665-88.71 5.1052zm107.75-202.8-0.25317-153.75-55.446-0.25856c-42.832-0.19973-55.626-0.54099-56.235-1.5-0.91961-1.448-1.11-34.82-0.21205-37.16 0.55012-1.4336 16.146-1.5818 166.45-1.5818h165.85l1.6391 2.25c6.296 8.6424 143.05 231.41 161.62 263.27 7.2339 12.412 13.452 22.211 13.818 21.776 0.36632-0.43562 0.23096-7.317-0.30078-15.292-0.53215-7.981-1.015-72.272-1.074-143l-0.10718-128.5 21.428-0.27041c16.475-0.2079 21.615 0.0233 22.235 1 0.92497 1.4574 1.1524 342.78 0.22995 345.19-0.53406 1.3917-4.0688 1.5818-29.42 1.5818h-28.813l-13.24-21.75c-64.615-106.14-140.27-231.66-158.83-263.5-3.4455-5.9106-6.6697-10.997-7.165-11.303-0.53235-0.32901-0.59779 9.5839-0.16007 24.247 0.40725 13.642 0.74045 80.378 0.74045 148.3v123.5l-21.75 0.2695c-11.962 0.14823-21.859 0.14823-21.992 0-0.13312-0.14822-0.47062-69.344-0.75-153.77l-0.50796-153.5h-110l-0.25317 153.75-0.25318 153.75h-46.987zm314.75 69.169c-11.645-7.1884-33.893-18.4-46.263-23.313-18.597-7.3862-48.466-16.106-55.168-16.106h-3.0688v-48.338c0-26.586-0.29867-59.273-0.66371-72.638-0.48578-17.785-0.36284-24.196 0.45858-23.912 0.61726 0.21334 9.0696 13.663 18.783 29.888l17.661 29.5-1.1963 6c-0.65796 3.3-3.4312 12.712-6.1628 20.915-2.7316 8.2034-4.7694 15.429-4.5285 16.056 0.24086 0.62769 5.1568 2.1314 10.924 3.3416 10.452 2.1932 31.115 7.7978 33.458 9.0752 1.5609 0.85106 45.418 73.162 45.044 74.268-0.15238 0.45015-4.3271-1.6816-9.2771-4.7372zm-78.468-251.04c-5.2074-8.5662-10.556-16.43-11.885-17.476-2.1844-1.7183-4.2642-1.9011-21.627-1.9011-22.19 0-19.809 1.071-26.673-12-2.4549-4.675-6.1605-11.152-8.2346-14.393-3.6998-5.7819-3.8067-5.8574-5.6634-4-1.0408 1.0412-5.1677 8.1931-9.1709 15.893l-7.2785 14-24.275 0.26783c-19.817 0.21865-24.371 0.0162-24.8-1.1024-0.65261-1.7007 5.5751-18.389 12.563-33.665 12.569-27.477 34.078-61.362 50.781-80l4.0328-4.5 2.707 2.5c4.0309 3.7226 16.921 19.234 24.753 29.788 22.072 29.741 40.841 67.032 50.689 100.71 4.2021 14.371 5.661 21.513 4.3869 21.476-0.46085-0.0132-5.0985-7.0327-10.306-15.599z" fill="#9fa897"/>
 <path d="m681.5 727.96c-43.496-4.355-82.36-16.161-115.18-34.99-12.384-7.1049-24.461-15.274-32.073-21.696l-5.25-4.4285v-30.423c0-19.814 0.35217-30.423 1.0099-30.423 0.55543 0 4.4239 3.1655 8.5965 7.0344 26.03 24.136 54.842 41.174 87.705 51.865 18.567 6.0406 46.373 11.1 61.001 11.1 3.5147 0 5.0176 0.59874 7.5303 3l3.1392 3h30.874c29.72 0 30.973-0.0774 33.509-2.0726 1.4492-1.1399 2.6349-2.9134 2.6349-3.941 0-5.125 2.567-2.0373 8.4734 10.192 9.5112 19.694 15.271 34.8 13.277 34.824-0.1375 2e-3 -4.8239 0.89108-10.414 1.9765-19.851 3.8543-34.412 5.191-60.336 5.5388-14.025 0.18817-29.55-0.0634-34.5-0.55899zm-470.5-3.9133c-15.444-0.95673-22.822-1.9485-23.576-3.1691-1.501-2.4286 11.162-34.972 21.547-55.377 18.084-35.531 38.64-63.573 65.432-89.265 12.246-11.743 35.145-29.633 36.699-28.672 0.49971 0.30884 0.89783 14.53 0.89783 32.072v31.517l-8.4553 9.174c-15.223 16.517-27.24 32.963-36.551 50.025-3.4981 6.4095-4.0285 8.0282-2.889 8.8168 1.9025 1.3165 23.12 0.28443 36.276-1.7646l10.588-1.649 5.8346 6.2459h51.288l2.4545-2.4546c2.3532-2.3532 2.4546-2.989 2.4546-15.396v-12.942l7.75-4.8084c19.973-12.392 36.579-25.803 58.308-47.091 9.107-8.9221 17.163-17.352 17.902-18.734 1.24-2.3169 0.8477-3.5703-5.0582-16.162-3.5214-7.5077-6.9906-13.88-7.7095-14.16-3.9106-1.524-39.239 7.702-58.193 15.197-6.325 2.5011-11.838 4.5484-12.25 4.5494-0.4125 1e-3 -0.75-11.868-0.75-26.377v-26.379l2.75-1.1074c4.1577-1.6743 20.619-5.8054 30.75-7.7168 4.95-0.93392 9.3726-2.0302 9.8281-2.4363 0.45543-0.40603-1.2553-7.2056-3.8017-15.11-5.0496-15.675-9.7503-37.468-11.592-53.742-1.6045-14.178-0.88959-59.275 0.97526-61.522 1.1561-1.393 4.4213-1.6087 24.352-1.6087h23.016l-0.62801 6.25c-3.3617 33.456-0.83806 65.474 7.8148 99.148 5.0459 19.637 6.4733 22.985 10.065 23.607l2.9704 0.51444 0.25724 64.595 0.25725 64.595-8.3228 7.9902c-41.145 39.5-98.872 67.384-161.98 78.24-26.308 4.5256-63.508 6.6665-88.71 5.1052zm109.69-49.694c-0.37711-0.37711-0.68565-69.15-0.68565-152.83 0-120.15-0.26288-152.5-1.25-153.83-1.143-1.5449-5.9572-1.711-56.25-1.9411l-55-0.25168-0.27324-18.427c-0.20868-14.073 0.0276-18.618 1-19.235 0.70028-0.44443 75.116-0.81496 165.37-0.82338 155.05-0.0145 164.18 0.0811 165.6 1.7347 1.4398 1.6782 82.705 132.96 119.01 192.25 21.826 35.647 47.173 78.058 52.744 88.25 2.33 4.2625 4.6742 7.75 5.2093 7.75 0.62605 0 0.68296-8.2899 0.15961-23.25-0.44735-12.788-0.81336-77.925-0.81336-144.75v-121.5l19-0.28398c10.45-0.15618 20.012-0.0351 21.25 0.26905l2.25 0.55303v172.87c0 156.72-0.14784 172.93-1.5818 173.48-0.86998 0.33385-13.474 0.60699-28.01 0.60699-25.217 0-26.507-0.0919-28.146-2.0061-3.0806-3.5979-143.17-235.22-172.22-284.74-3.9519-6.7375-7.6008-12.25-8.1086-12.25-0.55784 0-0.62873 7.2236-0.17909 18.25 0.4093 10.038 0.74419 77.2 0.74419 149.25v131l-19 0.28398c-10.45 0.15618-20.012 0.0351-21.25-0.26905l-2.25-0.55303v-153.37c0-138.93-0.14892-153.43-1.5818-153.98-0.86998-0.33385-25.818-0.60699-55.441-0.60699-41.989 0-54.037 0.27549-54.668 1.25-0.44496 0.6875-1.034 70.1-1.309 154.25l-0.5 153-21.564 0.26899c-11.86 0.14794-21.873-0.0396-22.25-0.41667zm312.81-83.933c-11.645-7.1884-33.893-18.4-46.263-23.313-18.597-7.3862-48.466-16.106-55.168-16.106h-3.0688v-48.338c0-26.586-0.29867-59.273-0.66371-72.638-0.48578-17.785-0.36284-24.196 0.45858-23.912 0.61726 0.21334 9.0696 13.663 18.783 29.888l17.661 29.5-1.1963 6c-0.65796 3.3-3.4312 12.712-6.1628 20.915-2.7316 8.2034-4.7694 15.429-4.5285 16.056 0.24086 0.62769 5.1568 2.1314 10.924 3.3416 10.452 2.1932 31.115 7.7978 33.458 9.0752 1.5609 0.85106 45.418 73.162 45.044 74.268-0.15238 0.45015-4.3271-1.6816-9.2771-4.7372zm-78.468-251.04c-5.2074-8.5662-10.556-16.43-11.885-17.476-2.1844-1.7183-4.2642-1.9011-21.627-1.9011-22.19 0-19.809 1.071-26.673-12-2.4549-4.675-6.1605-11.152-8.2346-14.393-3.6998-5.7819-3.8067-5.8574-5.6634-4-1.0408 1.0412-5.1677 8.1931-9.1709 15.893l-7.2785 14-24.275 0.26783c-19.817 0.21865-24.371 0.0162-24.8-1.1024-0.65261-1.7007 5.5751-18.389 12.563-33.665 12.569-27.477 34.078-61.362 50.781-80l4.0328-4.5 2.707 2.5c4.0309 3.7226 16.921 19.234 24.753 29.788 22.072 29.741 40.841 67.032 50.689 100.71 4.2021 14.371 5.661 21.513 4.3869 21.476-0.46085-0.0132-5.0985-7.0327-10.306-15.599z" fill="#8f67ae"/>
 <path d="m682 726.96c-37.617-3.5467-72.287-13.061-102.35-28.088-16.429-8.2117-26.935-14.754-41.9-26.092l-7.75-5.8716v-29.455c0-16.2 0.29601-29.455 0.6578-29.455s4.0743 3.0612 8.25 6.8028c41.624 37.296 90.559 58.541 142.46 61.848 9.2467 0.58921 10.425 0.89623 13.421 3.4976l3.2848 2.8517h63.021l2.4545-2.4546c1.35-1.35 2.4546-2.925 2.4546-3.5 0-3.2286 2.3621 0.35526 7.7143 11.705 6.8401 14.504 12.898 29.971 12.065 30.804-0.91353 0.91352-18.33 4.1875-31.78 5.974-14.607 1.9402-57.556 2.7953-72 1.4334zm-470.67-3.9263c-15.839-1.0212-23.328-1.983-23.328-2.9956 0-2.235 8.7975-25.883 14.103-37.911 18.499-41.933 47.446-82.81 77.79-109.84 10.134-9.0294 28.592-23.284 30.15-23.284 0.58908 0 0.95718 11.977 0.95718 31.144v31.144l-7.8219 8.1475c-9.4362 9.8289-18.436 21.036-26.124 32.53-6.9042 10.323-15.054 24.736-15.054 26.624 0 0.7552 1.1893 1.6716 2.6428 2.0364 3.654 0.9171 23.558-0.32514 35.827-2.2361l10.18-1.5855 6.1964 6.1964h51.308l2.9231-2.9231c2.9187-2.9187 2.9231-2.9418 2.9231-15.412v-12.488l14.25-9.5018c7.8375-5.226 19.987-14.268 26.998-20.092 14.802-12.297 43.752-41.09 43.752-43.515 0-0.9112-2.8908-7.9368-6.4239-15.612-4.9092-10.665-6.9086-14.03-8.4795-14.273-2.9277-0.45129-21.573 3.4448-35.19 7.3532-9.4363 2.7084-19.627 6.3915-33.673 12.17-1.0076 0.41448-1.2124-4.768-1-25.3l0.26711-25.821 7.499-2.3481c4.1245-1.2915 13.799-3.6153 21.5-5.1641 10.281-2.0678 14.083-3.2268 14.308-4.3619 0.16908-0.85024-1.0309-5.3377-2.6667-9.9721-3.8819-10.998-9.4738-33.392-11.796-47.239-1.5027-8.9605-1.8447-16.47-1.8447-40.5 0-16.225 0.32338-30.288 0.71862-31.25 0.65448-1.5938 2.7348-1.75 23.31-1.75h22.592l-0.81033 9.75c-1.4826 17.839-0.71963 47.373 1.6312 63.143 2.0881 14.007 7.9908 39.001 11.833 50.107 1.7154 4.9578 2.2147 5.5309 5.064 5.8134l3.161 0.31336v128.71l-7.75 7.1729c-28.103 26.01-58.361 44.937-94.75 59.267-29.608 11.66-63.511 19.567-97 22.624-16.25 1.4833-44.303 2.0322-58.172 1.138zm109.36-48.683c-0.37711-0.37711-0.68565-69.15-0.68565-152.83 0-120.15-0.26288-152.5-1.25-153.83-1.143-1.5449-5.9572-1.711-56.25-1.9411l-55-0.25168-0.27324-18.427c-0.20868-14.073 0.0276-18.618 1-19.235 0.70028-0.44443 75.116-0.81496 165.37-0.82338 155.05-0.0145 164.18 0.0811 165.6 1.7347 1.4398 1.6782 82.705 132.96 119.01 192.25 21.826 35.647 47.173 78.058 52.744 88.25 2.33 4.2625 4.6742 7.75 5.2093 7.75 0.62605 0 0.68296-8.2899 0.15961-23.25-0.44735-12.788-0.81336-77.925-0.81336-144.75v-121.5l19-0.28398c10.45-0.15618 20.012-0.0351 21.25 0.26905l2.25 0.55303v172.87c0 156.72-0.14784 172.93-1.5818 173.48-0.86998 0.33385-13.474 0.60699-28.01 0.60699-25.217 0-26.507-0.0919-28.146-2.0061-3.0806-3.5979-143.17-235.22-172.22-284.74-3.9519-6.7375-7.6008-12.25-8.1086-12.25-0.55784 0-0.62873 7.2236-0.17909 18.25 0.4093 10.038 0.74419 77.2 0.74419 149.25v131l-19 0.28398c-10.45 0.15618-20.012 0.0351-21.25-0.26905l-2.25-0.55303v-153.37c0-138.93-0.14892-153.43-1.5818-153.98-0.86998-0.33385-25.818-0.60699-55.441-0.60699-41.989 0-54.037 0.27549-54.668 1.25-0.44496 0.6875-1.034 70.1-1.309 154.25l-0.5 153-21.564 0.26899c-11.86 0.14794-21.873-0.0396-22.25-0.41667zm306.31-88.902c-13.341-7.9438-31.523-16.528-47-22.188-14.633-5.3521-34.734-11.261-42.616-12.527l-7.1155-1.1432-0.4942-70.546c-0.27181-38.8-0.39838-70.667-0.28126-70.816s8.0164 12.86 17.554 28.907l17.341 29.177-2.3042 9.0925c-1.2673 5.0009-4.256 14.493-6.6416 21.093-3.3258 9.2012-4.0582 12.254-3.1401 13.091 0.65852 0.59987 6.0313 2.0759 11.94 3.2802 11.278 2.2987 25.682 6.2349 31.101 8.4991 2.7135 1.1338 6.2379 6.3543 23.112 34.234 10.95 18.093 20.555 33.909 21.343 35.146s1.0436 2.2261 0.56785 2.1968-6.49-3.4026-13.365-7.4963zm-72.029-248.11c-4.659-7.6105-9.5491-14.85-10.867-16.087-2.3179-2.1766-3.0406-2.25-22.16-2.25h-19.764l-4.2148-7.75c-8.0041-14.718-14.105-24.25-15.521-24.25-1.8318 0-4.8366 4.8215-12.367 19.844l-6.0935 12.156h-23.992c-16.224 0-23.992-0.34299-23.992-1.0593 0-2.3585 11.648-30.253 17.566-42.068 7.9057-15.782 14.564-27.148 24.529-41.872 8.224-12.152 23.662-32 24.89-32 0.98053 0 15.163 16.486 23.227 27 20.694 26.98 38.792 60.465 49.365 91.332 4.8473 14.152 8.7217 28.273 8.1926 29.86-0.18001 0.54002-4.1392-5.2449-8.7982-12.855z" fill="#8aa375"/>
 <path d="m682 726.96c-37.617-3.5467-72.287-13.061-102.35-28.088-16.429-8.2117-26.935-14.754-41.9-26.092l-7.75-5.8716v-29.455c0-16.2 0.29601-29.455 0.6578-29.455s4.0743 3.0612 8.25 6.8028c41.624 37.296 90.559 58.541 142.46 61.848 9.2467 0.58921 10.425 0.89623 13.421 3.4976l3.2848 2.8517h63.021l2.4545-2.4546c1.35-1.35 2.4546-2.925 2.4546-3.5 0-3.2286 2.3621 0.35526 7.7143 11.705 6.8401 14.504 12.898 29.971 12.065 30.804-0.91353 0.91352-18.33 4.1875-31.78 5.974-14.607 1.9402-57.556 2.7953-72 1.4334zm-470.67-3.9263c-15.839-1.0212-23.328-1.983-23.328-2.9956 0-2.235 8.7975-25.883 14.103-37.911 18.499-41.933 47.446-82.81 77.79-109.84 10.134-9.0294 28.592-23.284 30.15-23.284 0.58908 0 0.95718 11.977 0.95718 31.144v31.144l-7.8219 8.1475c-9.4362 9.8289-18.436 21.036-26.124 32.53-6.9042 10.323-15.054 24.736-15.054 26.624 0 0.7552 1.1893 1.6716 2.6428 2.0364 3.654 0.9171 23.558-0.32514 35.827-2.2361l10.18-1.5855 6.1964 6.1964h51.308l2.9231-2.9231c2.9187-2.9187 2.9231-2.9418 2.9231-15.412v-12.488l14.25-9.5018c7.8375-5.226 19.987-14.268 26.998-20.092 14.802-12.297 43.752-41.09 43.752-43.515 0-0.9112-2.8908-7.9368-6.4239-15.612-4.9092-10.665-6.9086-14.03-8.4795-14.273-2.9277-0.45129-21.573 3.4448-35.19 7.3532-9.4363 2.7084-19.627 6.3915-33.673 12.17-1.0076 0.41448-1.2124-4.768-1-25.3l0.26711-25.821 7.499-2.3481c4.1245-1.2915 13.799-3.6153 21.5-5.1641 10.281-2.0678 14.083-3.2268 14.308-4.3619 0.16908-0.85024-1.0309-5.3377-2.6667-9.9721-3.8819-10.998-9.4738-33.392-11.796-47.239-1.5027-8.9605-1.8447-16.47-1.8447-40.5 0-16.225 0.32338-30.288 0.71862-31.25 0.65448-1.5938 2.7348-1.75 23.31-1.75h22.592l-0.81033 9.75c-1.4826 17.839-0.71963 47.373 1.6312 63.143 2.0881 14.007 7.9908 39.001 11.833 50.107 1.7154 4.9578 2.2147 5.5309 5.064 5.8134l3.161 0.31336v128.71l-7.75 7.1729c-28.103 26.01-58.361 44.937-94.75 59.267-29.608 11.66-63.511 19.567-97 22.624-16.25 1.4833-44.303 2.0322-58.172 1.138zm109.14-50.265c-0.26376-0.69826-0.59051-69.895-0.72613-153.77l-0.24657-152.5-111-1-0.27207-18.75-0.27206-18.75h164.9c137.77 0 165.09 0.22362 166.03 1.3593 1.2376 1.4912 47.317 75.828 97.339 157.03 32.35 52.514 62.524 102.5 73.354 121.51 3.2585 5.7207 6.3746 10.221 6.9246 10 1.1862-0.47594 1.1951 1.1677-0.36542-67.901-0.68404-30.276-1.0987-91.614-0.93297-138l0.29839-83.5 41.5-0.54058v346.04h-55.857l-11.731-19.25c-58.318-95.695-150.46-248.67-164.59-273.25-3.9562-6.8821-6.3942-7.8689-6.1765-2.5 1.2597 31.075 2.3897 139.78 2.157 207.5l-0.2989 87-41.5 0.54058-0.0153-152.77c-8e-3 -84.024-0.37484-153.34-0.81426-154.03-0.6297-0.99188-12.649-1.2037-56.735-1l-55.936 0.25848-1 307-21.774 0.26957c-16.878 0.20895-21.882-0.0159-22.253-1zm306.53-87.319c-13.341-7.9438-31.523-16.528-47-22.188-14.633-5.3521-34.734-11.261-42.616-12.527l-7.1155-1.1432-0.4942-70.546c-0.27181-38.8-0.39838-70.667-0.28126-70.816s8.0164 12.86 17.554 28.907l17.341 29.177-2.3042 9.0925c-1.2673 5.0009-4.256 14.493-6.6416 21.093-3.3258 9.2012-4.0582 12.254-3.1401 13.091 0.65852 0.59987 6.0313 2.0759 11.94 3.2802 11.278 2.2987 25.682 6.2349 31.101 8.4991 2.7135 1.1338 6.2379 6.3543 23.112 34.234 10.95 18.093 20.555 33.909 21.343 35.146s1.0436 2.2261 0.56785 2.1968-6.49-3.4026-13.365-7.4963zm-72.029-248.11c-4.659-7.6105-9.5491-14.85-10.867-16.087-2.3179-2.1766-3.0406-2.25-22.16-2.25h-19.764l-4.2148-7.75c-8.0041-14.718-14.105-24.25-15.521-24.25-1.8318 0-4.8366 4.8215-12.367 19.844l-6.0935 12.156h-23.992c-16.224 0-23.992-0.34299-23.992-1.0593 0-2.3585 11.648-30.253 17.566-42.068 7.9057-15.782 14.564-27.148 24.529-41.872 8.224-12.152 23.662-32 24.89-32 0.98053 0 15.163 16.486 23.227 27 20.694 26.98 38.792 60.465 49.365 91.332 4.8473 14.152 8.7217 28.273 8.1926 29.86-0.18001 0.54002-4.1392-5.2449-8.7982-12.855z" fill="#6a8a4f"/>
 <path d="m682 726.96c-37.617-3.5467-72.287-13.061-102.35-28.088-16.429-8.2117-26.935-14.754-41.9-26.092l-7.75-5.8716v-29.455c0-16.2 0.29601-29.455 0.6578-29.455s4.0743 3.0612 8.25 6.8028c41.624 37.296 90.559 58.541 142.46 61.848 9.2467 0.58921 10.425 0.89623 13.421 3.4976l3.2848 2.8517h63.021l2.4545-2.4546c1.35-1.35 2.4546-2.925 2.4546-3.5 0-3.2286 2.3621 0.35526 7.7143 11.705 6.8401 14.504 12.898 29.971 12.065 30.804-0.91353 0.91352-18.33 4.1875-31.78 5.974-14.607 1.9402-57.556 2.7953-72 1.4334zm-470.67-3.9263c-15.839-1.0212-23.328-1.983-23.328-2.9956 0-2.235 8.7975-25.883 14.103-37.911 18.499-41.933 47.446-82.81 77.79-109.84 10.134-9.0294 28.592-23.284 30.15-23.284 0.58908 0 0.95718 11.977 0.95718 31.144v31.144l-7.8219 8.1475c-9.4362 9.8289-18.436 21.036-26.124 32.53-6.9042 10.323-15.054 24.736-15.054 26.624 0 0.7552 1.1893 1.6716 2.6428 2.0364 3.654 0.9171 23.558-0.32514 35.827-2.2361l10.18-1.5855 6.1964 6.1964h51.308l2.9231-2.9231c2.9187-2.9187 2.9231-2.9418 2.9231-15.412v-12.488l14.25-9.5018c7.8375-5.226 19.987-14.268 26.998-20.092 14.802-12.297 43.752-41.09 43.752-43.515 0-0.9112-2.8908-7.9368-6.4239-15.612-4.9092-10.665-6.9086-14.03-8.4795-14.273-2.9277-0.45129-21.573 3.4448-35.19 7.3532-9.4363 2.7084-19.627 6.3915-33.673 12.17-1.0076 0.41448-1.2124-4.768-1-25.3l0.26711-25.821 7.499-2.3481c4.1245-1.2915 13.799-3.6153 21.5-5.1641 10.281-2.0678 14.083-3.2268 14.308-4.3619 0.16908-0.85024-1.0309-5.3377-2.6667-9.9721-3.8819-10.998-9.4738-33.392-11.796-47.239-1.5027-8.9605-1.8447-16.47-1.8447-40.5 0-16.225 0.32338-30.288 0.71862-31.25 0.65448-1.5938 2.7348-1.75 23.31-1.75h22.592l-0.81033 9.75c-1.4826 17.839-0.71963 47.373 1.6312 63.143 2.0881 14.007 7.9908 39.001 11.833 50.107 1.7154 4.9578 2.2147 5.5309 5.064 5.8134l3.161 0.31336v128.71l-7.75 7.1729c-28.103 26.01-58.361 44.937-94.75 59.267-29.608 11.66-63.511 19.567-97 22.624-16.25 1.4833-44.303 2.0322-58.172 1.138zm109.42-203.78-0.25317-153.75-111.5-0.51679v-35.983h328.95l1.4231 2.25c6.9547 10.996 105.53 170.81 123.82 200.75 23.18 37.935 45.511 75.594 49.741 83.887 1.4682 2.8779 2.708 4.1331 3.8603 3.9082 2.0415-0.39845 2.0268 1.5604 0.40249-53.795-0.65363-22.275-1.1922-84.712-1.1967-138.75l-0.00832-98.25h40v344l-54.5-0.012-12.908-21.244c-80.408-132.33-144.42-238.6-161.11-267.47-9.0926-15.729-10.514-14.78-9.3279 6.2248 0.43499 7.7 1.0856 74.412 1.4458 148.25l0.65494 134.25h-40.258v-152.31c0-120.27-0.26292-152.67-1.25-154.01-1.1555-1.5734-5.5215-1.6824-57.75-1.4411l-56.5 0.261-0.25317 153.75-0.25318 153.75h-42.987zm306.25 66.201c-13.341-7.9438-31.523-16.528-47-22.188-14.633-5.3521-34.734-11.261-42.616-12.527l-7.1155-1.1432-0.4942-70.546c-0.27181-38.8-0.39838-70.667-0.28126-70.816s8.0164 12.86 17.554 28.907l17.341 29.177-2.3042 9.0925c-1.2673 5.0009-4.256 14.493-6.6416 21.093-3.3258 9.2012-4.0582 12.254-3.1401 13.091 0.65852 0.59987 6.0313 2.0759 11.94 3.2802 11.278 2.2987 25.682 6.2349 31.101 8.4991 2.7135 1.1338 6.2379 6.3543 23.112 34.234 10.95 18.093 20.555 33.909 21.343 35.146s1.0436 2.2261 0.56785 2.1968-6.49-3.4026-13.365-7.4963zm-72.029-248.11c-4.659-7.6105-9.5491-14.85-10.867-16.087-2.3179-2.1766-3.0406-2.25-22.16-2.25h-19.764l-4.2148-7.75c-8.0041-14.718-14.105-24.25-15.521-24.25-1.8318 0-4.8366 4.8215-12.367 19.844l-6.0935 12.156h-23.992c-16.224 0-23.992-0.34299-23.992-1.0593 0-2.3585 11.648-30.253 17.566-42.068 7.9057-15.782 14.564-27.148 24.529-41.872 8.224-12.152 23.662-32 24.89-32 0.98053 0 15.163 16.486 23.227 27 20.694 26.98 38.792 60.465 49.365 91.332 4.8473 14.152 8.7217 28.273 8.1926 29.86-0.18001 0.54002-4.1392-5.2449-8.7982-12.855z" fill="#642d8f"/>
 <path d="m320.75 519.25-0.25317-153.75-111.5-0.51679v-35.983h328.95l1.4231 2.25c6.9547 10.996 105.53 170.81 123.82 200.75 23.18 37.935 45.511 75.594 49.741 83.887 1.4682 2.8779 2.708 4.1331 3.8603 3.9082 2.0415-0.39845 2.0268 1.5604 0.40249-53.795-0.65363-22.275-1.1922-84.712-1.1967-138.75l-0.00832-98.25h40v344l-54.5-0.012-12.908-21.244c-80.408-132.33-144.42-238.6-161.11-267.47-9.0926-15.729-10.514-14.78-9.3279 6.2248 0.43499 7.7 1.0856 74.412 1.4458 148.25l0.65494 134.25h-40.258v-152.31c0-120.27-0.26292-152.67-1.25-154.01-1.1555-1.5734-5.5215-1.6824-57.75-1.4411l-56.5 0.261-0.25317 153.75-0.25318 153.75h-42.987z" fill="#537833"/>
</svg>
